<svg xmlns="http://www.w3.org/2000/svg" width="169" height="28" viewBox="0 0 169 28">
    <defs>
        <filter id="a" width="100.1%" height="101.7%" x="0%" y="-.4%" filterUnits="objectBoundingBox">
            <feOffset dy="1" in="SourceAlpha" result="shadowOffsetOuter1"/>
            <feColorMatrix in="shadowOffsetOuter1" result="shadowMatrixOuter1" values="0 0 0 0 0.777290604 0 0 0 0 0.777290604 0 0 0 0 0.777290604 0 0 0 0.5 0"/>
            <feMerge>
                <feMergeNode in="shadowMatrixOuter1"/>
                <feMergeNode in="SourceGraphic"/>
            </feMerge>
        </filter>
    </defs>
    <g fill="none" fill-rule="evenodd" filter="url(#a)" transform="translate(-376 -64)">
        <path fill="#383935" d="M473.974 85.68c-.264.284-.84.504-1.73.659-.864.13-1.98.193-3.35.193h-1.584c-.961 0-1.741-.13-2.341-.386-.601-.285-.901-.853-.901-1.706 0-.877.384-1.42 1.153-1.625.768-.235 1.704-.35 2.81-.35l3.565.079c.77 0 1.417.128 1.945.387.553.232.83.71.83 1.433 0 .594-.133 1.033-.397 1.316zm4.539-12.51c-1.393-.826-3.385-1.24-5.98-1.24l-2.81.078c-1.73.05-2.966.077-3.71.077-2.162 0-3.94.374-5.331 1.123-1.37.75-2.054 2.157-2.054 4.222h6.196c0-.593.145-.98.433-1.162.288-.18.732-.27 1.332-.27l2.053-.079 2.882.079c1.033 0 1.765.194 2.198.58.432.361.649 1.085.649 2.17v1.974c-.553-.827-1.25-1.355-2.09-1.587-.817-.232-1.862-.349-3.136-.349h-2.807c-.962 0-1.91.038-2.847.117-1.777 0-3.158.491-4.142 1.47-.962.956-1.441 2.39-1.441 4.3 0 2.634.624 4.312 1.872 5.036 1.274.722 3.254 1.084 5.945 1.084h1.152c1.993 0 3.615-.194 4.863-.58 1.273-.388 2.15-1.305 2.63-2.75v2.942h6.269V78.207c0-2.532-.709-4.21-2.126-5.037zM438.636 72.316v3.72c.529-1.654 1.393-2.75 2.594-3.292 1.2-.543 2.75-.814 4.646-.814 3.41 0 5.823.608 7.24 1.821 1.442 1.188 2.162 3.576 2.162 7.165v9.49h-6.267v-9.49c0-1.6-.313-2.634-.937-3.099-.6-.464-1.729-.697-3.386-.697h-.72c-1.85 0-3.206.296-4.072.891-.839.568-1.26 1.859-1.26 3.874v8.52h-6.232V72.316h6.232M429.305 90.405h-6.232v-3.717c-.383 1.627-1.283 2.724-2.7 3.292-1.393.541-3.05.813-4.972.813-3.121 0-5.427-.58-6.917-1.743-1.488-1.188-2.232-3.407-2.232-6.662V72.316h6.232v9.453c0 1.73.396 2.84 1.188 3.331.793.463 2.077.697 3.856.697 1.945 0 3.349-.336 4.214-1.007.888-.698 1.331-2.027 1.331-3.99v-8.484h6.232v18.09M403.477 76.772H393.32v5.772c0 1.185.167 2.026.504 2.517.36.491 1.069.736 2.126.736.936 0 1.608-.168 2.016-.504.433-.335.649-.98.649-1.936v-.813h4.862c0 3.2-.48 5.383-1.44 6.546-.936 1.136-2.942 1.703-6.016 1.703-3.77 0-6.232-.503-7.385-1.51-1.153-1.033-1.728-2.622-1.728-4.764V67.903h6.412v4.413h10.157v4.456M500.166 87.306c-1.278.597-3.508.893-6.69.893l-.975.04c-2.797 0-4.712-.44-5.749-1.322-1.037-.907-1.555-2.81-1.555-5.713 0-3.032.494-4.95 1.484-5.756 1.011-.802 2.917-1.202 5.711-1.202h.76c1.036 0 1.927.012 2.676.038.77.025 1.783.13 3.036.31 1.277.182 2.132.909 2.567 2.178.458 1.27.687 3.031.687 5.286 0 2.903-.65 4.652-1.952 5.248zm-.18-15.004c-1.448-.311-3.617-.467-6.51-.467-1.012 0-1.89.013-2.638.04-.747.026-1.543.09-2.387.193-2.435.336-4.037 1.27-4.808 2.798-.77 1.503-1.157 3.68-1.157 6.531 0 4.016.83 6.556 2.494 7.619 1.664 1.063 4.484 1.594 8.461 1.594 4.483 0 7.495-.544 9.038-1.631 1.542-1.09 2.314-3.799 2.314-8.125 0-2.852-.447-4.911-1.337-6.182-.868-1.27-2.025-2.06-3.47-2.37zM518.89 72.068V74.4h.007v15.936h2.531v-18.27h-2.539M518.89 67.054v.395h.007v2.71h2.531v-3.105h-2.539M511.372 70.726v-.174c0-1.762.396-2.876 1.192-3.343.796-.466 2.084-.699 3.869-.699h.377v-2.218l-1.245-.037c-2.265 0-3.954.479-5.062 1.437-1.109.934-1.663 2.553-1.663 4.86v1.516h-3.795V74.4h3.795v15.936h2.532V74.4h5.25v-2.333h-5.25v-1.342"/>
        <path fill="#79252E" d="M376.164 74.868h6.477v-6.965h-6.477z"/>
        <path fill="#383935" d="M543.272 80.892c-1.01-.726-2.565-1.089-4.662-1.089h-4.738l-4.375-.114c-1.107 0-1.927-.17-2.457-.508-.506-.362-.76-1.1-.76-2.215 0-.83.242-1.412.724-1.749.505-.362 1.168-.609 1.988-.739.844-.13 1.59-.207 2.242-.232.674-.026 1.543-.04 2.603-.04h.65l2.17.04c.964.025 1.832.09 2.603.192.77.08 1.325.299 1.663.662.362.337.591 1.022.686 2.06h2.532c0-1.866-.374-3.187-1.122-3.965a2.978 2.978 0 0 0-.873-.65c-.004-.003 0-.007-.007-.01-.071-.04-.295-.195-1.037-.363-.044-.01-.089-.018-.134-.027-.976-.206-2.748-.42-5.999-.449-5.993-.054-7.944.573-8.008.59l.002.005c-.762.21-1.414.548-1.947 1.022-.965.83-1.447 2.15-1.447 3.963 0 1.945.494 3.24 1.482 3.889.989.646 2.435.97 4.339.97h4.375l4.591.04c1.302 0 2.242.233 2.82.7.603.466.904 1.348.904 2.643 0 .855-.206 1.451-.614 1.788-.386.31-1.17.543-2.35.698-1.182.13-2.52.196-4.014.196h-1.41a47.92 47.92 0 0 1-2.242-.077 44.408 44.408 0 0 0-2.204-.078c-1.205-.13-2.05-.429-2.531-.894-.482-.468-.725-1.322-.725-2.566l-.035-.428h-2.567l-.036.817c0 1.554.265 2.746.794 3.575.531.804 1.351 1.337 2.459 1.596 1.134.231 2.074.36 2.82.386.772.054 1.88.079 3.328.079l4.736-.079c2.483 0 4.314-.296 5.494-.892 1.207-.623 1.808-2.139 1.808-4.548 0-2.1-.506-3.5-1.519-4.199"/>
    </g>
</svg>
