<?xml version="1.0" encoding="iso-8859-1"?>
<!-- Generator: Adobe Illustrator 18.1.1, SVG Export Plug-In . SVG Version: 6.00 Build 0)  -->
<svg version="1.1" id="Capa_1" xmlns="http://www.w3.org/2000/svg" xmlns:xlink="http://www.w3.org/1999/xlink" x="0px"
     y="0px"
     viewBox="0 0 1024.594 1024.594" style="enable-background:new 0 0 1024.594 1024.594;" xml:space="preserve">
<path d="M994.424,884.18c-5.108,0-10.287-1.303-15.035-4.041L575.365,646.88c-14.415-8.326-19.351-26.75-11.033-41.165
	c74.46-128.957,30.117-294.449-98.84-368.901c-128.988-74.46-294.449-30.109-368.901,98.84
	c-36.072,62.47-45.654,135.25-26.986,204.923c18.668,69.681,63.356,127.913,125.826,163.978
	c82.723,47.772,185.737,48.039,268.836,0.753c14.47-8.231,32.863-3.17,41.094,11.292c8.224,14.462,3.17,32.863-11.292,41.094
	c-101.626,57.816-227.593,57.463-328.771-0.942C88.886,712.63,34.232,641.403,11.398,556.177S0.278,381.928,44.394,305.522
	c91.064-157.739,293.484-212.001,451.231-120.906c148.935,85.995,205.59,271.269,134.787,424.457l379.109,218.867
	c14.415,8.326,19.351,26.75,11.033,41.165C1014.967,878.773,1004.837,884.18,994.424,884.18z"/>
	<g>
</g>
	<g>
</g>
	<g>
</g>
	<g>
</g>
	<g>
</g>
	<g>
</g>
	<g>
</g>
	<g>
</g>
	<g>
</g>
	<g>
</g>
	<g>
</g>
	<g>
</g>
	<g>
</g>
	<g>
</g>
	<g>
</g>
</svg>
