<svg xmlns="http://www.w3.org/2000/svg" width="19" height="14" viewBox="0 0 19 14">
    <g fill="none" fill-rule="evenodd">
        <path d="M-2-6h24v24H-2z"/>
        <path fill="#414141" d="M18.75 1.66a7.652 7.652 0 0 1-2.122.558 3.568 3.568 0 0 0 1.624-1.96 7.547 7.547 0 0 1-2.345.858A3.761 3.761 0 0 0 13.213 0C11.2-.028 9.547 1.555 9.519 3.535c0 .27.032.539.095.802A10.65 10.65 0 0 1 2.002.644a3.415 3.415 0 0 0-.5 1.781 3.498 3.498 0 0 0 1.644 2.94 3.82 3.82 0 0 1-1.673-.446v.044c.019 1.704 1.26 3.158 2.963 3.467a3.877 3.877 0 0 1-1.668.06 3.68 3.68 0 0 0 3.45 2.455 7.614 7.614 0 0 1-4.587 1.514c-.294 0-.588-.016-.881-.05a10.8 10.8 0 0 0 5.661 1.589c5.68.12 10.383-4.314 10.506-9.905l.003-.153c0-.154 0-.307-.011-.458A7.333 7.333 0 0 0 18.75 1.66"/>
    </g>
</svg>
