<svg xmlns="http://www.w3.org/2000/svg" width="80" height="12" viewBox="0 0 80 12">
    <g fill="#8D8D8D" fill-rule="evenodd">
        <path d="M19.98 9.526l-5.096-.067.006-4.078.008-2.813.004-.933.003-.263c0-.573-.409-.518-.409-.518H12.83c-.274.035-.411.171-.412.412l-.005 8.193a2.537 2.537 0 0 0 2.537 2.537h5.03c.27.03.407-.106.411-.411V9.938c.032-.21-.105-.346-.411-.412M10.751 7.775H8.914a.426.426 0 0 0-.349.194 3.295 3.295 0 1 1 0-3.477c.112.134.228.198.35.194h1.836c.362-.027.49-.215.383-.563A5.768 5.768 0 0 0 0 6.231a5.765 5.765 0 0 0 11.134 2.107c.13-.388.002-.576-.383-.563M48.064 6.065l4.432-4.593c.325-.446.226-.679-.296-.698h-2.016a.644.644 0 0 0-.292.121l-4.957 4.986c-.172.233-.17.427 0 .582l5.425 5.413a.303.303 0 0 0 .29.12h2.168c.643 0 .678-.202.296-.697l-5.05-5.234zM43.183 7.775h-1.837c-.139-.018-.255.047-.35.194a3.295 3.295 0 1 1 0-3.477c.078.147.195.212.35.194h1.837c.4.03.528-.157.383-.563a5.768 5.768 0 0 0-11.134 2.108 5.766 5.766 0 0 0 11.134 2.107c.173-.405.045-.592-.383-.563M25.754 9.526a3.294 3.294 0 1 1 0-6.59 3.294 3.294 0 0 1 0 6.59m0-9.06a5.765 5.765 0 1 0 0 11.53 5.765 5.765 0 1 0 0-11.53M64.341 8.564a2.302 2.302 0 1 1 0-4.604 2.302 2.302 0 0 1 0 4.604m0-5.628a3.326 3.326 0 1 0 0 6.652 3.326 3.326 0 0 0 0-6.652M76.502 6.158l2.924-3.03h-1.342L75.56 5.741v-2.47c0-.033.005-.065.015-.094h-1.035l-.004.094v6.316h1.024V6.773h.063l2.715 2.815h1.472l-3.31-3.43zM69.579 5.426a1.333 1.333 0 1 1 2.666 0 1.333 1.333 0 0 1-2.666 0m3.673.013a2.342 2.342 0 0 0-3.692-1.912c.001-.235.003-.377.004-.38H68.53l-.004 6.44h1.024l.002-2.22 2.632 2.22h1.471l-2.13-1.889a2.341 2.341 0 0 0 1.728-2.259"/>
        <path d="M59.944 3.178c-.002.02-.991 2.837-1.657 4.73-.627-1.688-1.5-4.042-1.501-4.062l-.526 1.745h-.003c-.002.015-.408 1.19-.779 2.261-.688-1.892-1.693-4.655-1.695-4.674H52.57l2.323 6.362-.017.048h1.259l.74-2.13.778 2.13h1.264l2.259-6.41h-1.232z"/>
    </g>
</svg>
