<svg xmlns="http://www.w3.org/2000/svg" width="8" height="14" viewBox="0 0 8 14">
    <g fill="none" fill-rule="evenodd">
        <path d="M-8-6h24v24H-8z"/>
        <path fill="#414141" fill-rule="nonzero" d="M7.699.003L5.779 0C3.625 0 2.232 1.352 2.232 3.445v1.589H.301A.294.294 0 0 0 0 5.32V7.62c0 .158.135.286.302.286H2.23v5.808c0 .157.135.285.302.285H5.05a.294.294 0 0 0 .302-.285V7.907h2.255a.294.294 0 0 0 .302-.286L7.91 5.32a.278.278 0 0 0-.088-.202.31.31 0 0 0-.214-.084H5.352V3.687c0-.647.163-.975 1.054-.975h1.292A.294.294 0 0 0 8 2.425V.288a.294.294 0 0 0-.301-.285z"/>
    </g>
</svg>
