<svg xmlns="http://www.w3.org/2000/svg" width="16" height="16" viewBox="0 0 16 16">
    <path fill="#414141" fill-rule="evenodd" d="M14.875 1.818c.547 0 .995.447.995.994V15.006a.998.998 0 0 1-.995.994H.995A.998.998 0 0 1 0 15.006V2.811c0-.546.448-.993.995-.993H2.425v.316c0 .566.46 1.026 1.026 1.026h.47c.567 0 1.028-.46 1.028-1.026v-.316h5.972v.316c0 .566.46 1.026 1.027 1.026h.47c.567 0 1.027-.46 1.027-1.026v-.316h1.429zm-.586 12.72l.027-10.196-12.929-.027v10.223h12.902zm-3.127-7.051V5.374h2.115v2.113h-2.115zm-2.936 0V5.374h2.115v2.113H8.226zm-2.935 0V5.374h2.114v2.113H5.291zm-2.936 0V5.374h2.114v2.113H2.355zm8.807 3.023V8.397h2.115v2.113h-2.115zm-2.936 0V8.397h2.115v2.113H8.226zm-2.935 0V8.397h2.114v2.113H5.291zm-2.936 0V8.397h2.114v2.113H2.355zm5.871 3.044V11.44h2.115v2.113H8.226zm-2.935 0V11.44h2.114v2.113H5.291zm-2.936 0V11.44h2.114v2.113H2.355zM3.45 2.764a.632.632 0 0 1-.63-.63V.63c0-.347.284-.63.63-.63h.47c.347 0 .63.283.63.63v1.504c0 .346-.283.63-.63.63h-.47zm8.497 0a.632.632 0 0 1-.63-.63V.63c0-.347.283-.63.63-.63h.47c.347 0 .63.283.63.63v1.504c0 .346-.283.63-.63.63h-.47z"/>
</svg>
