<svg xmlns="http://www.w3.org/2000/svg" width="21" height="14" viewBox="0 0 21 14">
    <g fill="none" fill-rule="evenodd">
        <path d="M-1.75-6h24v24h-24z"/>
        <path fill="#414141" fill-rule="nonzero" d="M19.47 1.202C18.75.348 17.416 0 14.87 0H5.63C3.026 0 1.67.37.95 1.28.25 2.165.25 3.47.25 5.277v3.444c0 3.5.832 5.278 5.38 5.278h9.24c2.208 0 3.43-.307 4.222-1.06.812-.773 1.158-2.034 1.158-4.218V5.278c0-1.906-.054-3.219-.78-4.076zm-6.38 6.274l-4.196 2.18a.647.647 0 0 1-.944-.568V4.74c0-.225.118-.433.31-.549a.648.648 0 0 1 .633-.021l4.196 2.167a.641.641 0 0 1 .001 1.139z"/>
    </g>
</svg>
