<svg xmlns="http://www.w3.org/2000/svg" width="14" height="14" viewBox="0 0 14 14">
    <g fill="#414141" fill-rule="evenodd">
        <path fill-rule="nonzero" d="M5.432 10.866a5.4 5.4 0 0 1-3.843-1.592 5.44 5.44 0 0 1 0-7.685 5.44 5.44 0 0 1 7.686 0 5.397 5.397 0 0 1 1.59 3.843 5.399 5.399 0 0 1-1.59 3.842 5.397 5.397 0 0 1-3.843 1.592zm0-10.004c-1.17 0-2.342.446-3.233 1.337a4.577 4.577 0 0 0 0 6.465 4.576 4.576 0 0 0 6.466 0 4.577 4.577 0 0 0 0-6.465A4.558 4.558 0 0 0 5.432.862z"/>
        <path d="M5.608 4.98h2.04v.628h-2.04v2.04H4.98v-2.04H2.941V4.98h2.04V2.941h.627v2.04zm7.185 8.244a.43.43 0 0 1-.305-.126L8.95 9.56a.43.43 0 1 1 .61-.61l3.538 3.538a.43.43 0 0 1-.305.736z" opacity=".98"/>
    </g>
</svg>
