<svg width="23px" height="23px" viewBox="0 0 23 23" version="1.1" xmlns="http://www.w3.org/2000/svg">
    <g id="Symbols" stroke="none" stroke-width="1" fill="none" fill-rule="evenodd">
        <g id="header01" transform="translate(-1270.000000, -47.000000)" fill="#414141" fill-rule="nonzero">
            <g id="auricular-phone-symbol-in-a-circle" transform="translate(1268.000000, 45.000000)">
                <path d="M13.4721936,3.84719359 C18.7788342,3.84719359 23.0971936,8.16555296 23.0971936,13.4721936 C23.0971936,18.7788342 18.7788342,23.0971936 13.4721936,23.0971936 C8.16555296,23.0971936 3.84719359,18.7788342 3.84719359,13.4721936 C3.84719359,8.16555296 8.16555296,3.84719359 13.4721936,3.84719359 Z M13.4721936,2.47219359 C7.39748655,2.47219359 2.47219359,7.39748655 2.47219359,13.4721936 C2.47219359,19.5469006 7.39748655,24.4721936 13.4721936,24.4721936 C19.5469006,24.4721936 24.4721936,19.5469006 24.4721936,13.4721936 C24.4721936,7.39748655 19.5469006,2.47219359 13.4721936,2.47219359 Z M19.6046506,17.1500608 L19.5428616,16.9620725 C19.397842,16.5297209 18.9198147,16.0785491 18.479385,15.957678 L16.8533186,15.5132092 C16.4128889,15.3937131 15.7844709,15.5548459 15.4609162,15.8784436 L14.87276,16.4665998 C12.7350647,15.8878537 11.0579514,14.2107405 10.4805373,12.0730451 L11.0686936,11.4848889 C11.3909592,11.1626233 11.552092,10.5342053 11.4325959,10.0924436 L10.9894162,8.46633421 C10.8699201,8.02590452 10.4160412,7.54787718 9.98368968,7.40285765 L9.79836546,7.34106859 C9.3646389,7.19604905 8.74563109,7.34240062 8.42336546,7.66604124 L7.54250609,8.54690062 C7.38541234,8.70266234 7.28469359,9.14979515 7.28469359,9.15117015 C7.25513109,11.9468459 8.35087718,14.6390959 10.3274397,16.6169905 C12.2986311,18.5881819 14.9815139,19.6825959 17.7677366,19.6583616 C17.7825178,19.6583616 18.2430998,19.5603498 18.4001936,19.4032131 L19.281053,18.5223537 C19.6033186,18.2014201 19.7482951,17.5824123 19.6046506,17.1500608 Z" id="Shape" transform="translate(13.472194, 13.472194) rotate(15.000000) translate(-13.472194, -13.472194) "></path>
            </g>
        </g>
    </g>
</svg>