<svg xmlns="http://www.w3.org/2000/svg" width="17" height="15" viewBox="0 0 17 15">
    <path fill="#414141" fill-rule="nonzero" d="M.587 8.542h1.385v5.24c0 .31.267.562.593.562h4.056c.326 0 .593-.253.593-.562V9.945h2.473v3.837c0 .31.267.562.593.562h3.858c.326 0 .593-.253.593-.562v-5.24h1.681c.238 0 .455-.14.544-.347a.542.542 0 0 0-.128-.608L9.093.167a.615.615 0 0 0-.83-.01L.181 7.577a.54.54 0 0 0-.139.618.58.58 0 0 0 .544.347zm8.071-7.187l6.33 6.064h-.85c-.327 0-.594.252-.594.561v5.24h-2.67V9.385c0-.309-.267-.562-.594-.562H6.62c-.326 0-.593.253-.593.562v3.837H3.16V7.98c0-.31-.267-.562-.594-.562h-.514l6.607-6.064z"/>
</svg>
