<svg xmlns="http://www.w3.org/2000/svg" width="17" height="16" viewBox="0 0 17 16">
    <g fill="none" fill-rule="evenodd">
        <path d="M-3.5-4h24v24h-24z"/>
        <g fill="#414141" fill-rule="nonzero">
            <path d="M12.084 0H4.915A4.42 4.42 0 0 0 .5 4.415v7.17A4.42 4.42 0 0 0 4.915 16h7.17a4.42 4.42 0 0 0 4.415-4.415v-7.17A4.42 4.42 0 0 0 12.084 0zm2.996 11.585a3 3 0 0 1-2.995 2.995h-7.17a3 3 0 0 1-2.995-2.995v-7.17A3 3 0 0 1 4.915 1.42h7.17a3 3 0 0 1 2.995 2.995v7.17z"/>
            <path d="M8.598 4A4.102 4.102 0 0 0 4.5 8.098a4.102 4.102 0 0 0 4.098 4.097 4.102 4.102 0 0 0 4.097-4.097A4.102 4.102 0 0 0 8.598 4zm0 6.784A2.69 2.69 0 0 1 5.91 8.098 2.69 2.69 0 0 1 8.598 5.41a2.69 2.69 0 0 1 2.686 2.687 2.69 2.69 0 0 1-2.686 2.686zM12.476 3a.98.98 0 0 0-.976.976c0 .256.105.508.286.69.181.18.433.285.69.285a.985.985 0 0 0 .69-.285.98.98 0 0 0 0-1.38.98.98 0 0 0-.69-.286z"/>
        </g>
    </g>
</svg>
