<svg xmlns="http://www.w3.org/2000/svg" width="22" height="13" viewBox="0 0 22 13">
    <g fill="none" fill-rule="evenodd">
        <path d="M-1-6h24v24H-1z"/>
        <g fill="#414141" fill-rule="nonzero">
            <path d="M13.422.201c.612.086 1.21.238 1.802.419 1.033.315 2.007.753 2.923 1.321a.45.45 0 0 0 .224.064c1.077.005 2.153.003 3.228.004.087 0 .173.01.26.014 0 .02.003.03 0 .035l-.152.228c-.365.555-.677 1.136-.862 1.778-.02.07-.024.127.023.195.959 1.364 1.264 2.862.864 4.477-.351 1.416-1.17 2.52-2.414 3.302-.889.559-1.871.825-2.92.83-.441.003-.88-.056-1.31-.166a5.505 5.505 0 0 1-2.691-1.574c-.098-.104-.19-.211-.294-.328l-1.173 1.734-1.153-1.71-.04.02a.178.178 0 0 0-.022.024c-.897 1.05-2.025 1.694-3.4 1.91a5.355 5.355 0 0 1-2.263-.127 5.405 5.405 0 0 1-2.669-1.649 5.33 5.33 0 0 1-1.31-2.764c-.189-.978.041-1.922.098-2.15a5.447 5.447 0 0 1 .854-1.839.21.21 0 0 0 .025-.158c-.163-.59-.442-1.126-.77-1.64-.083-.13-.182-.252-.274-.377V2.03c.018.002.037.006.055.006l3.303-.001c.048 0 .102-.02.143-.046A11.91 11.91 0 0 1 5.97.803C6.596.585 7.233.414 7.884.29 8.514.17 9.147.083 9.787.041c1.56-.119 2.806.045 3.635.16zm-1.38 7.212a4.36 4.36 0 0 0 4.372 4.348c2.419-.009 4.372-1.913 4.37-4.337-.002-2.498-2.046-4.376-4.464-4.328a4.344 4.344 0 0 0-4.278 4.317zM5.484 3.08C3.13 3.06 1.08 5.006 1.12 7.486c.038 2.312 1.96 4.273 4.412 4.252 2.396-.02 4.322-1.96 4.327-4.31.003-2.415-1.946-4.348-4.376-4.348zM5.7 1.948c1.328.08 2.496.54 3.482 1.43.984.887 1.56 1.994 1.77 3.296.216-1.286.778-2.383 1.743-3.262.968-.88 2.12-1.341 3.427-1.439C14.57 1.29 12.936 1 11.253.967 9.338.93 7.477 1.209 5.7 1.948z"/>
            <path d="M16.714 4c1.497-.002 2.71 1.194 2.71 2.676 0 1.488-1.192 2.639-2.598 2.692-1.57.06-2.826-1.18-2.826-2.685A2.69 2.69 0 0 1 16.714 4zm1.766 2.683c-.001-.968-.79-1.754-1.759-1.754-.98 0-1.777.782-1.781 1.747-.004.96.798 1.759 1.769 1.761a1.766 1.766 0 0 0 1.77-1.754zM5.717 4C7.213 4 8.427 5.197 8.423 6.68a2.697 2.697 0 0 1-2.578 2.688C4.27 9.438 2.997 8.192 3 6.68A2.688 2.688 0 0 1 5.717 4zM7.48 6.677c-.002-.974-.796-1.75-1.787-1.748-.956.002-1.757.802-1.755 1.753.003.962.803 1.754 1.776 1.756A1.771 1.771 0 0 0 7.48 6.677z"/>
            <path d="M16.9 6c.495 0 .902.403.897.892a.896.896 0 0 1-.892.887A.89.89 0 1 1 16.899 6zM5.906 6c.503 0 .908.398.91.896a.905.905 0 0 1-.908.9A.89.89 0 0 1 5 6.893C5 6.39 5.395 6 5.906 6z"/>
        </g>
    </g>
</svg>
