<svg xmlns="http://www.w3.org/2000/svg" width="22" height="23" viewBox="0 0 22 23">
    <defs>
        <filter id="a" width="100.1%" height="101.7%" x="0%" y="-.4%" filterUnits="objectBoundingBox">
            <feOffset dy="1" in="SourceAlpha" result="shadowOffsetOuter1"/>
            <feColorMatrix in="shadowOffsetOuter1" result="shadowMatrixOuter1" values="0 0 0 0 0.777290604 0 0 0 0 0.777290604 0 0 0 0 0.777290604 0 0 0 0.5 0"/>
            <feMerge>
                <feMergeNode in="shadowMatrixOuter1"/>
                <feMergeNode in="SourceGraphic"/>
            </feMerge>
        </filter>
    </defs>
    <g fill="#252525" fill-rule="nonzero" filter="url(#a)" transform="translate(-1522 -67)">
        <path d="M1531.239 85.476a9.18 9.18 0 0 1-6.533-2.705c-3.602-3.602-3.602-9.463 0-13.065 3.602-3.601 9.464-3.602 13.065 0a9.175 9.175 0 0 1 2.705 6.533c0 2.467-.96 4.787-2.705 6.532a9.175 9.175 0 0 1-6.532 2.705zm0-17.006c-1.99 0-3.981.758-5.496 2.273-3.03 3.03-3.03 7.96 0 10.991 3.03 3.031 7.96 3.032 10.991 0 3.03-3.03 3.03-7.96 0-10.991a7.749 7.749 0 0 0-5.495-2.273z"/>
        <path d="M1543.267 89a.731.731 0 0 1-.519-.215l-6.014-6.014a.733.733 0 1 1 1.037-1.037l6.014 6.014a.733.733 0 0 1-.518 1.252z"/>
    </g>
</svg>
