<svg xmlns="http://www.w3.org/2000/svg" width="91" height="14" viewBox="0 0 91 14">
    <g fill="#696969" fill-rule="evenodd">
        <path d="M23.037 10.836l-5.745-.072.008-4.39.008-3.028.005-1.003.003-.284c0-.616-.46-.558-.46-.558h-1.88c-.308.038-.463.185-.464.444l-.005 8.819c0 1.508 1.28 2.731 2.86 2.731h5.67c.305.034.46-.114.464-.443V11.28c.037-.225-.118-.372-.464-.444M13.004 8.742h-2.135a.5.5 0 0 0-.406.218 3.855 3.855 0 0 1-3.254 1.755c-2.115 0-3.83-1.663-3.83-3.715 0-2.051 1.715-3.714 3.83-3.714 1.372 0 2.577.7 3.254 1.754.13.15.265.223.406.219h2.135c.421-.031.57-.242.445-.635C12.472 2.211 10.047.5 7.21.5 3.507.5.507 3.41.507 7s3 6.5 6.702 6.5c2.838 0 5.263-1.71 6.24-4.124.152-.438.003-.649-.445-.634M54.315 7.156l5.18-4.91c.381-.477.266-.725-.345-.746h-2.357a.79.79 0 0 0-.342.13l-5.794 5.33c-.201.248-.2.456 0 .622l6.341 5.786a.37.37 0 0 0 .34.129h2.535c.752 0 .792-.216.345-.746l-5.903-5.595zM48.976 8.742h-2.13c-.162-.021-.297.052-.406.218a3.843 3.843 0 0 1-3.246 1.755c-2.11 0-3.821-1.663-3.821-3.715 0-2.051 1.71-3.714 3.821-3.714 1.37 0 2.571.7 3.246 1.754.09.166.225.239.406.219h2.13c.463.033.612-.177.444-.635C48.445 2.211 46.025.5 43.194.5c-3.693 0-6.687 2.91-6.687 6.5s2.994 6.5 6.687 6.5c2.831 0 5.251-1.71 6.226-4.124.2-.457.053-.668-.444-.634"/>
        <path d="M30.007 10.714a3.714 3.714 0 1 1 0-7.428 3.714 3.714 0 0 1 0 7.428m0-10.214a6.5 6.5 0 0 0-6.5 6.5 6.5 6.5 0 1 0 13 0 6.5 6.5 0 0 0-6.5-6.5M73.006 9.423a2.423 2.423 0 1 1 0-4.846 2.423 2.423 0 0 1 0 4.846m0-5.923a3.5 3.5 0 1 0 .001 7 3.5 3.5 0 0 0 0-7M86.742 6.784L90.069 3.5h-1.527l-2.87 2.833V3.657c0-.036.005-.07.016-.102H84.51l-.003.102V10.5h1.164V7.45h.071l3.09 3.05h1.675l-3.765-3.716zM78.74 6.012c0-.794.697-1.438 1.558-1.438.862 0 1.559.644 1.559 1.438 0 .794-.697 1.438-1.559 1.438-.86 0-1.559-.644-1.559-1.438m4.296.014c0-1.395-1.226-2.526-2.74-2.526-.588 0-1.132.173-1.578.463.001-.252.003-.406.005-.41H77.51l-.003 6.947h1.197l.002-2.396 3.079 2.396h1.722l-2.494-2.038c1.165-.29 2.022-1.27 2.022-2.436M68.075 3.5c-.002.021-1.152 3.098-1.925 5.165a759.56 759.56 0 0 1-1.745-4.435l-.61 1.905h-.005c-.001.017-.473 1.3-.904 2.47-.8-2.066-1.968-5.084-1.97-5.105h-1.41l2.7 6.948-.02.052h1.464l.86-2.326.902 2.326h1.47l2.625-7h-1.432z"/>
    </g>
</svg>
