<?xml version="1.0" encoding="UTF-8"?>
<svg width="162px" height="21px" viewBox="0 0 162 21" version="1.1" xmlns="http://www.w3.org/2000/svg" xmlns:xlink="http://www.w3.org/1999/xlink">
    <!-- Generator: sketchtool 48.2 (47327) - http://www.bohemiancoding.com/sketch -->
    <title>9D383E36-17EE-4787-BBBF-078418CD8669</title>
    <desc>Created with sketchtool.</desc>
    <defs></defs>
    <g id="footer" stroke="none" stroke-width="1" fill="none" fill-rule="evenodd" transform="translate(-374.000000, -517.000000)">
        <g id="landini_logo" transform="translate(374.000000, 517.000000)">
            <path d="M62.7421741,20.3969231 C59.1034455,20.3969231 58.411672,17.7741667 59.7387553,15.6524786 L60.7120994,14.0374679 L56.749172,20.3969231 L3.50504808,20.3969231 C0.33036859,20.3969231 -0.810122863,18.0104915 0.672142094,15.6386432 C0.669898504,15.6431303 10.2507746,0.313055556 10.2507746,0.313055556 L19.0269498,0.313055556 C22.9330395,0.313055556 23.7900908,2.71369658 22.3657853,4.99168803 L18.2630075,11.6573932 C20.7204861,8.29088675 27.62289,6.41337607 38.1262553,6.41337607 L68.233734,6.41337607 C76.1450053,6.41337607 76.7713408,9.44633547 76.7713408,9.44633547 C76.7713408,9.44633547 80.5686165,6.41337607 90.5724092,6.41337607 L93.2284455,6.41337607 L95.1362447,3.44660256 L116.656757,3.44660256 C120.042334,3.44660256 120.52321,5.21342949 120.247249,6.41337607 L137.067067,6.41337607 C144.913275,6.41337607 145.162313,8.83981838 145.162313,8.83981838 L148.503392,3.46081197 L157.379407,3.46081197 C161.285123,3.46081197 162.1418,5.86182692 160.718243,8.14019231 L153.091533,20.3969231 L131.584108,20.3969231 C127.945005,20.3969231 127.266319,17.7741667 128.592655,15.6524786 L129.556277,14.0374679 L125.581384,20.3969231 L62.7421741,20.3969231 Z" id="Fill-1" fill="#0078B6"></path>
            <path d="M109.857746,6.5307906 L108.425962,8.83981838 L115.72062,8.83981838 L116.277404,7.94313034 C116.706677,7.25509615 116.448291,6.5307906 115.270406,6.5307906 L109.857746,6.5307906 Z" id="Fill-3" fill="#FFFFFE"></path>
            <path d="M150.52281,6.5307906 L149.086538,8.83981838 L156.422703,8.83981838 L156.933868,7.94313034 C157.364263,7.25509615 157.105502,6.5307906 155.927618,6.5307906 L150.52281,6.5307906 Z" id="Fill-5" fill="#FFFFFE"></path>
            <path d="M94.1343697,11.3900694 C94.1343697,11.3900694 92.9669551,11.3294925 92.2067521,11.3294925 C87.4896047,11.3294925 84.5486325,12.6191827 84.2154594,14.08836 C83.9230449,15.3694498 85.6091026,15.4576976 85.9830342,15.4576976 C87.4499679,15.4576976 91.5852778,15.3855288 93.4078205,12.5055075 C93.5798291,12.2351549 94.1343697,11.3900694 94.1343697,11.3900694 Z M38.1295085,11.3384669 L37.3401389,11.3384669 C32.171656,11.3384669 28.5318056,12.5642147 28.2098504,14.0378793 C27.9308974,15.3129861 29.6061111,15.4090865 29.9777991,15.4090865 C31.4462286,15.4090865 35.5822863,15.3331784 37.4029594,12.4546528 C37.5738462,12.1846741 38.1295085,11.3384669 38.1295085,11.3384669 Z M155.378761,10.5180609 L151.256538,17.1523558 L132.958194,17.1523558 C131.781806,17.1523558 131.566421,16.303531 131.994199,15.6162447 L133.642115,12.9336592 C133.790192,12.6763942 133.885545,12.3880929 133.881432,12.1162447 C133.871709,11.5863835 133.256966,11.2232959 131.382073,11.2232959 C128.996763,11.2232959 126.949861,12.1162447 125.914444,13.7503259 L123.903066,17.1523558 L91.8107585,17.1523558 L92.1846902,15.8402297 C92.1846902,15.8402297 90.8710684,17.1523558 84.2300427,17.1523558 L64.1259829,17.1523558 C62.9477244,17.1523558 62.7327137,16.303531 63.1623611,15.6162447 L64.8095299,12.9336592 C64.956859,12.6763942 65.0533333,12.3880929 65.0484722,12.1162447 C65.0391239,11.5863835 64.4243803,11.2232959 62.5472436,11.2232959 C60.1638034,11.2232959 58.1169017,12.1162447 57.0811111,13.7503259 L55.0708547,17.1523558 L36.2706944,17.1523558 L36.5331944,15.729172 C34.222297,16.9545459 31.0061111,17.1523558 28.1156197,17.1523558 L5.55819444,17.1523558 C4.38068376,17.1523558 4.16455128,16.303531 4.59494658,15.6162447 L12.0877885,3.55807158 L17.5217628,3.55807158 C18.6996474,3.55807158 18.9580342,4.28125534 18.5283868,4.96816774 L12.8199466,14.1545459 C12.3902991,14.8414583 12.6800962,15.4730288 13.8587286,15.4730288 L20.5689316,15.4730288 C20.4765705,15.2400694 20.4915278,14.7906036 20.4915278,14.7906036 C20.4470299,12.2931143 25.9976709,9.6572703 38.1691453,9.6572703 L46.3728312,9.6572703 L42.7602778,15.4692895 L47.3020513,15.4692895 C47.7272115,15.4692895 48.4810577,15.0650694 48.7185043,14.6870246 L51.8498077,9.6572703 L58.5409402,9.6572703 L58.1277457,10.9091934 C60.4438782,9.95678953 62.9731517,9.4680609 66.2188782,9.4680609 C70.2909936,9.4680609 73.958515,10.1646955 72.2388034,12.9336592 L70.6600641,15.472281 L76.4051496,15.472281 C75.9186645,13.5891613 77.0774786,12.6042254 78.2033868,11.9636806 C80.7708013,10.5057212 85.5488996,9.4680609 91.7666346,9.4680609 C92.781485,9.4680609 94.1777457,9.52826389 95.193344,9.64866987 L97.129188,6.53082799 L104.380844,6.53082799 L98.8257158,15.4767682 L103.375342,15.4767682 C103.800502,15.4767682 104.55547,15.0691827 104.791047,14.69039 C104.792169,14.6870246 107.382767,10.5180609 107.382767,10.5180609 L114.677051,10.5180609 L111.597724,15.4730288 L116.133889,15.4730288 C116.559423,15.4730288 117.312147,15.0699306 117.550342,14.6922596 L120.682393,9.6572703 L127.3739,9.6572703 L126.960705,10.9091934 C129.27609,9.95678953 131.806485,9.4680609 135.05109,9.4680609 C139.107874,9.4680609 142.80531,10.1411378 141.070641,12.9336592 L139.49265,15.4715331 L144.029936,15.4715331 C144.455844,15.4715331 145.208194,15.067313 145.446389,14.69039 L148.045588,10.5180609 L155.378761,10.5180609 Z" id="Fill-7" fill="#FFFFFE"></path>
        </g>
    </g>
</svg>