<svg xmlns="http://www.w3.org/2000/svg" width="78" height="173" viewBox="0 0 47 102">
    <g fill="#A97457" fill-rule="evenodd" opacity=".1">
        <path d="M22.477 51.628C21.059 42.042 20.555 36.483 20.259 27L15 28.677c.25 9.928.435 15.146 1.847 24.82 1.604 10.997 3.267 17.123 6.357 27.861 2.172 7.55 3.592 11.856 6.308 19.097l6.122.328c-2.443-6.205-3.557-9.475-5.467-15.632-3.987-12.859-5.734-20.291-7.69-33.523M46.112 27.542c-5.4-2.041-10.747-6.768-14.241-13.207-2.45-4.516-3.602-9.157-3.542-13.28L25.225 0a104.352 104.352 0 0 0-.214 5.71c-.098 7.002.456 10.949 1.07 17.93.942 10.738 1.798 16.781 3.604 27.43 2.16 12.724 3.477 19.921 6.997 32.398 1.99 7.054 3.255 11.004 5.743 17.929 1.227.618 3.606 0 3.606 0-.334-2.378-.577-3.713-.856-6.095-.546-4.675-.546-7.335-.855-12.026-.367-5.567-.676-8.704-.855-14.278-.388-12.046-.714-18.921.855-30.888.445-3.394 1.322-8.116 1.792-10.568M11.558 51.156C10.323 42.8 9.781 37.503 9.466 30L6 31.105c.225 8.139.503 13.232 1.77 21.921 1.605 10.997 3.269 17.123 6.358 27.86 2.122 7.375 3.526 11.654 6.12 18.595l4.23.226c-2.28-5.82-3.383-9.073-5.229-15.028-3.987-12.858-5.735-20.291-7.691-33.523M3.654 52.494C2.569 45.16 2.019 40.181 1.688 34L0 34.538c.22 6.974.554 11.907 1.709 19.826 1.604 10.997 3.268 17.123 6.358 27.861 2.084 7.244 3.475 11.502 5.984 18.23l2.342.126c-2.159-5.532-3.252-8.77-5.049-14.564C7.357 73.16 5.61 65.726 3.654 52.494"/>
    </g>
</svg>
