<svg xmlns="http://www.w3.org/2000/svg" width="78" height="173" viewBox="0 0 78 173">
    <path fill="#E6E6E6" fill-rule="evenodd" d="M39.682 89.057c3.318 22.596 6.281 35.288 13.044 57.247C55.966 156.82 57.855 162.403 62 173l-10.385-.561c-4.607-12.365-7.015-19.718-10.7-32.61-5.24-18.339-8.062-28.8-10.783-47.579C27.738 75.728 27.423 66.817 27 49.864L35.92 47c.502 16.195 1.358 25.687 3.762 42.057zM78 46.864c-.802 4.173-2.297 12.208-3.056 17.982-2.676 20.363-2.119 32.062-1.458 52.559.306 9.484.832 14.822 1.458 24.294.528 7.983.528 12.509 1.458 20.462.475 4.055.89 6.326 1.46 10.372 0 0-4.057 1.051-6.15 0-4.241-11.782-6.4-18.505-9.792-30.507-6.003-21.23-8.249-33.477-11.93-55.129-3.081-18.118-4.54-28.401-6.148-46.673-1.045-11.878-1.99-18.593-1.823-30.507.053-3.79.134-5.931.365-9.717l5.293 1.795c-.103 7.015 1.861 14.913 6.039 22.597C59.675 35.348 68.792 43.39 78 46.864zM20.324 89.117c3.282 22.587 6.213 35.276 12.902 57.228C36.324 156.511 38.174 162.065 42 172l-7.097-.387c-4.352-11.85-6.707-19.154-10.267-31.743-5.183-18.33-7.975-28.788-10.665-47.561C11.844 77.476 11.377 68.78 11 54.887L16.815 53c.527 12.81 1.437 21.85 3.51 36.117zm-14.083-.729c3.341 22.456 6.326 35.071 13.136 56.895C22.446 155.117 24.313 160.61 28 170l-4-.213c-4.285-11.42-6.661-18.646-10.222-30.94C8.501 120.621 5.66 110.224 2.92 91.561.946 78.122.375 69.749 0 57.914L2.884 57c.565 10.491 1.504 18.938 3.357 31.388z" opacity=".3"/>
</svg>
