<svg xmlns="http://www.w3.org/2000/svg" width="19" height="42" viewBox="0 0 19 42">
    <path fill="#A97457" fill-rule="evenodd" d="M9.501 21.495c.803 5.466 1.52 8.537 3.158 13.849.784 2.543 1.241 3.894 2.245 6.457l-2.514-.136c-1.115-2.99-1.698-4.77-2.59-7.888-1.269-4.436-1.952-6.967-2.61-11.51-.58-3.996-.656-6.151-.759-10.252l2.16-.693c.121 3.917.328 6.213.91 10.173zM18.9 11.377c-.193 1.013-.553 2.964-.736 4.366-.644 4.943-.51 7.784-.351 12.76.074 2.302.2 3.598.351 5.898.127 1.938.127 3.037.351 4.968.115.984.214 1.535.351 2.518 0 0-.976.255-1.48 0-1.021-2.86-1.541-4.493-2.358-7.407-1.445-5.154-1.986-8.127-2.873-13.384-.741-4.398-1.093-6.895-1.48-11.33-.252-2.884-.48-4.515-.439-7.407.013-.92.032-1.44.088-2.359l1.274.436c-.024 1.703.449 3.62 1.455 5.486 1.434 2.66 3.63 4.612 5.847 5.455zM4.98 21.495c.803 5.466 1.52 8.537 3.157 13.849.758 2.46 1.211 3.803 2.148 6.208l-1.737-.094c-1.066-2.867-1.642-4.635-2.513-7.681-1.269-4.436-1.952-6.967-2.61-11.51-.521-3.588-.635-5.693-.728-9.055l1.424-.456c.129 3.1.351 5.287.858 8.74zm-3.48 0c.803 5.466 1.52 8.537 3.158 13.849.738 2.393 1.186 3.73 2.073 6.016l-.962-.052c-1.03-2.78-1.601-4.538-2.457-7.531-1.269-4.436-1.952-6.967-2.61-11.51C.228 18.998.09 16.96 0 14.078l.693-.222c.136 2.554.362 4.61.807 7.64z" style="mix-blend-mode:multiply"/>
</svg>
