<?xml version="1.0" encoding="UTF-8"?>
<svg width="111px" height="111px" viewBox="0 0 111 111" version="1.1" xmlns="http://www.w3.org/2000/svg" xmlns:xlink="http://www.w3.org/1999/xlink">
    <!-- Generator: sketchtool 50.2 (55047) - http://www.bohemiancoding.com/sketch -->
    <title>C5071F53-F9B7-4F1D-ABB6-B628D859B1AC</title>
    <desc>Created with sketchtool.</desc>
    <defs></defs>
    <g id="Proje" stroke="none" stroke-width="1" fill="none" fill-rule="evenodd">
        <g id="13_SoaBlogDetay" transform="translate(-905.000000, -1544.000000)" fill="#FFFFFF">
            <g id="btn_play" transform="translate(905.000000, 1544.000000)">
                <path d="M55.5,111 C24.8481964,111 0,86.1518036 0,55.5 C0,24.8481964 24.8481964,0 55.5,0 C86.1518036,0 111,24.8481964 111,55.5 C111,86.1518036 86.1518036,111 55.5,111 Z M74.6842105,56 L40.6842105,75.6842105 L40.6842105,36.3157895 L74.6842105,56 Z M55.5,107 C83.9426646,107 107,83.9426646 107,55.5 C107,27.0573354 83.9426646,4 55.5,4 C27.0573354,4 4,27.0573354 4,55.5 C4,83.9426646 27.0573354,107 55.5,107 Z" id="Combined-Shape"></path>
            </g>
        </g>
    </g>
</svg>