<svg xmlns="http://www.w3.org/2000/svg" width="35" height="42" viewBox="0 0 35 42">
    <path fill="#615F5D" fill-rule="evenodd" d="M26.519 6.3a2.8 2.8 0 0 1 2.79 2.8v2.984a6.251 6.251 0 0 0-3.044 1.687l-.445.449V10.5c0-.386-.316-.7-.698-.7h-2.094v1.4a.702.702 0 0 1-.697.699H6.979a.702.702 0 0 1-.696-.699V9.8H4.188a.701.701 0 0 0-.697.7v27.3c-.001.367.317.7.698.7h20.933a.715.715 0 0 0 .698-.7v-5.762l3.49-3.501V39.2c0 1.54-1.253 2.799-2.792 2.799H2.792A2.803 2.803 0 0 1 0 39.2V9.1c0-1.544 1.255-2.799 2.793-2.8h3.78a3.497 3.497 0 0 1 2.951-2.091C10.008 1.809 12.122 0 14.654 0a5.24 5.24 0 0 1 5.131 4.209A3.495 3.495 0 0 1 22.737 6.3h3.782zM8.376 9.8V7.7c0-.77.627-1.4 1.395-1.4h1.047a.7.7 0 0 0 .698-.7v-.35a3.146 3.146 0 0 1 3.139-3.15 3.146 3.146 0 0 1 3.141 3.15v.35a.7.7 0 0 0 .698.7h1.045a1.4 1.4 0 0 1 1.396 1.4v2.1H8.376zm15.422 21.296l-8.139 3.128a.682.682 0 0 1-.742-.159.687.687 0 0 1-.159-.746l3.119-8.163 5.92-5.94 5.922 5.94-5.92 5.94zM18.24 29.48l1.247 1.25 2.961-.99-3.22-3.23-.988 2.97zm7.038-11.749l2.467-2.474a4.179 4.179 0 0 1 5.922 0 4.213 4.213 0 0 1 0 5.94L31.2 23.673l-5.922-5.94zM15.703 5.25c0 .58-.47 1.05-1.047 1.05-.578 0-1.047-.47-1.047-1.05 0-.58.469-1.05 1.047-1.05s1.047.47 1.047 1.05z"/>
</svg>
