<svg xmlns="http://www.w3.org/2000/svg" width="28" height="8" viewBox="0 0 28 8">
    <path fill="#BFBDBA" fill-rule="evenodd" d="M4.536.293L7.364 3.12a1 1 0 0 1 0 1.415L4.536 7.364a1 1 0 0 1-1.415 0L.293 4.536a1 1 0 0 1 0-1.415L3.12.293a1 1 0 0 1 1.415 0zm10 0l2.828 2.828a1 1 0 0 1 0 1.415l-2.828 2.828a1 1 0 0 1-1.415 0l-2.828-2.828a1 1 0 0 1 0-1.415L13.12.293a1 1 0 0 1 1.415 0zm10 0l2.828 2.828a1 1 0 0 1 0 1.415l-2.828 2.828a1 1 0 0 1-1.415 0l-2.828-2.828a1 1 0 0 1 0-1.415L23.12.293a1 1 0 0 1 1.415 0z"/>
</svg>
