<svg xmlns="http://www.w3.org/2000/svg" width="90" height="13" viewBox="0 0 90 13">
    <g fill="#737373" fill-rule="evenodd">
        <path d="M22.53 10.336l-5.744-.072.007-4.39.008-3.028.006-1.003.003-.284c0-.616-.461-.558-.461-.558h-1.88c-.308.038-.463.185-.463.444L14 10.264c0 1.508 1.28 2.731 2.86 2.731h5.67c.305.034.46-.114.465-.443V10.78c.036-.225-.119-.372-.464-.444M12.497 8.242h-2.135a.5.5 0 0 0-.406.218 3.855 3.855 0 0 1-3.253 1.755c-2.116 0-3.83-1.663-3.83-3.715 0-2.051 1.714-3.714 3.83-3.714 1.372 0 2.576.7 3.253 1.754.13.15.265.223.406.219h2.135c.421-.031.57-.242.446-.635C11.965 1.711 9.54 0 6.703 0 3 0 0 2.91 0 6.5S3 13 6.703 13c2.837 0 5.262-1.71 6.24-4.124.151-.438.002-.649-.446-.634M53.808 6.656l5.181-4.91c.38-.477.265-.725-.346-.746h-2.356a.79.79 0 0 0-.342.13L50.15 6.46c-.2.248-.2.456.001.622l6.34 5.786a.37.37 0 0 0 .34.129h2.535c.752 0 .792-.216.346-.746l-5.904-5.595zM48.47 8.242h-2.131c-.161-.021-.296.052-.405.218a3.843 3.843 0 0 1-3.247 1.755c-2.11 0-3.82-1.663-3.82-3.715 0-2.051 1.71-3.714 3.82-3.714 1.37 0 2.571.7 3.247 1.754.09.166.225.239.405.219h2.13c.464.033.612-.177.445-.635C47.938 1.711 45.518 0 42.687 0 38.994 0 36 2.91 36 6.5s2.994 6.5 6.687 6.5c2.831 0 5.251-1.71 6.227-4.124.2-.457.052-.668-.445-.634"/>
        <path d="M29.5 10.214a3.714 3.714 0 1 1 0-7.428 3.714 3.714 0 0 1 0 7.428M29.5 0A6.5 6.5 0 0 0 23 6.5a6.5 6.5 0 1 0 13 0A6.5 6.5 0 0 0 29.5 0M72.5 8.923a2.423 2.423 0 1 1 0-4.846 2.423 2.423 0 0 1 0 4.846M72.5 3a3.5 3.5 0 1 0 0 7 3.5 3.5 0 0 0 0-7M86.235 6.284L89.563 3h-1.528l-2.87 2.833V3.157c0-.036.006-.07.017-.102h-1.178L84 3.157V10h1.165V6.95h.07L88.327 10H90l-3.765-3.716zM78.232 5.512c0-.794.699-1.438 1.56-1.438.861 0 1.558.644 1.558 1.438 0 .794-.697 1.438-1.559 1.438-.86 0-1.559-.644-1.559-1.438m4.297.014c0-1.395-1.227-2.526-2.74-2.526-.589 0-1.133.173-1.579.463.002-.252.003-.406.005-.41h-1.211L77 10h1.198l.002-2.396L81.278 10H83l-2.493-2.038c1.164-.29 2.022-1.27 2.022-2.436M67.569 3c-.002.021-1.153 3.098-1.925 5.165a759.56 759.56 0 0 1-1.746-4.435l-.61 1.905h-.004c-.002.017-.474 1.3-.905 2.47-.8-2.066-1.968-5.084-1.97-5.105H59l2.699 6.948-.02.052h1.464l.86-2.326.903 2.326H66.375L69 3h-1.431z"/>
    </g>
</svg>
