<svg xmlns="http://www.w3.org/2000/svg" width="24" height="24" viewBox="0 0 24 24">
    <g fill="none" fill-rule="evenodd">
        <path fill="#383533" fill-rule="nonzero" d="M13.773 17.456a7.184 7.184 0 0 0 5.113-2.117c2.819-2.82 2.819-7.406 0-10.225-2.82-2.818-7.407-2.819-10.225 0a7.18 7.18 0 0 0-2.117 5.112c0 1.932.752 3.748 2.117 5.113a7.18 7.18 0 0 0 5.112 2.117zm0-13.309c1.558 0 3.115.593 4.301 1.779a6.09 6.09 0 0 1 0 8.601 6.088 6.088 0 0 1-8.602 0 6.09 6.09 0 0 1 0-8.601 6.064 6.064 0 0 1 4.301-1.779z"/>
        <path fill="#383533" fill-rule="nonzero" d="M3.72 19.855a.572.572 0 0 0 .405-.169l4.707-4.706a.573.573 0 1 0-.812-.812l-4.706 4.707a.573.573 0 0 0 .405.98z"/>
    </g>
</svg>
