<svg xmlns="http://www.w3.org/2000/svg" width="35" height="42" viewBox="0 0 35 42">
    <path fill="#615F5D" fill-rule="evenodd" d="M21.323 23.264v2.58c0 .255-.152.475-.407.584a.752.752 0 0 1-.755-.085l-1.57-1.173a1.11 1.11 0 0 1-.822.353 1.11 1.11 0 0 1-.822-.353l-1.57 1.173a.752.752 0 0 1-.754.085c-.255-.11-.408-.329-.408-.584v-2.58c0-.256.153-.475.408-.584a.754.754 0 0 1 .755.084l1.569 1.174c.195-.216.491-.353.822-.353.331 0 .627.137.823.353l1.569-1.174a.754.754 0 0 1 .755-.084c.255.109.407.328.407.584zM7.108 25.2c-3.157 2.143-5.17 5.759-5.17 9.726v1.036a3.456 3.456 0 0 0 3.446 3.453c.38 0 .69-.31.69-.69v-1.558c0-.569.148-1.057.462-1.531.338-.51.572-1.563.572-2.78V25.2zm20.03 0c3.158 2.143 5.17 5.759 5.17 9.726v1.036a3.456 3.456 0 0 1-3.446 3.453.69.69 0 0 1-.689-.69v-1.558a2.65 2.65 0 0 0-.463-1.531c-.337-.51-.572-1.563-.572-2.78V25.2zM5.582 42C2.508 42 0 39.497 0 36.428v-1.045c0-6.337 4.28-11.709 10.101-13.386a.693.693 0 0 1 .818.357l5.902 11.783a.685.685 0 0 0 .625.385c.27 0 .503-.143.624-.385l5.904-11.783a.693.693 0 0 1 .817-.357c5.822 1.677 10.101 7.049 10.101 13.386v1.045c0 3.069-2.508 5.572-5.583 5.572H5.582zm5.748-27.473c.1-.02.192-.058.278-.117.282.924.639 1.816 1.08 2.644.792 1.487 2.148 3.256 3.891 3.574a3.053 3.053 0 0 0 1.086 0c1.742-.32 3.102-2.087 3.891-3.574.444-.829.8-1.719 1.083-2.644a.715.715 0 0 0 .277.117c.673.12 1.396-.815 1.619-2.09a1.261 1.261 0 0 0-1.008-1.461c-.392-.07-.783.28-.983.592a.138.138 0 0 1-.158.06.144.144 0 0 1-.103-.139V9.911a4.333 4.333 0 0 1-1.713-2.157c-1.554 1.735-3.791 2.827-6.278 2.827a8.37 8.37 0 0 1-2.332-.33v1.238c0 .066-.04.12-.099.139a.142.142 0 0 1-.16-.06c-.2-.313-.59-.661-.986-.592a1.26 1.26 0 0 0-1.003 1.46c.22 1.276.945 2.21 1.618 2.091zm14.087-4.802c.02-.411.032-.825.032-1.244-.008-3.516-2.219-6.36-4.946-6.36C20.503.947 18.988 0 17.121 0c-4.596 0-8.326 3.797-8.326 8.48 0 .42.012.835.033 1.245a3.392 3.392 0 0 0-1.024 3.06c.249 1.434 1.093 3.017 2.412 3.592 1.496 3.763 4.031 6.238 6.905 6.238 2.878 0 5.413-2.475 6.91-6.238 1.318-.575 2.162-2.158 2.411-3.592a3.393 3.393 0 0 0-1.025-3.06z"/>
</svg>
