<?xml version="1.0" encoding="UTF-8"?>
<svg width="24px" height="24px" viewBox="0 0 24 24" version="1.1" xmlns="http://www.w3.org/2000/svg" xmlns:xlink="http://www.w3.org/1999/xlink">
    <!-- Generator: sketchtool 50 (54983) - http://www.bohemiancoding.com/sketch -->
    <title>5F03B124-8E3E-4A94-8000-C03B65693F37</title>
    <desc>Created with sketchtool.</desc>
    <defs></defs>
    <g id="Symbols" stroke="none" stroke-width="1" fill="none" fill-rule="evenodd">
        <g id="icn-mail" fill="#615F5D" fill-rule="nonzero">
            <path d="M17.3193056,18 L5.81932646,18 C5.5046506,18 5.23178749,17.9015853 5,17.7072596 L8.96722883,13.9493737 C9.06646102,14.0168533 9.15824572,14.0799032 9.24100699,14.1373679 C9.53799186,14.3445251 9.77877735,14.5061341 9.96374474,14.6219544 C10.1485342,14.7380394 10.3946321,14.8563633 10.7020129,14.9771669 C11.0093938,15.0981389 11.2957793,15.1583963 11.5614745,15.1583963 L11.5692525,15.1583963 L11.5770304,15.1583963 C11.8427002,15.1583963 12.1290857,15.0981149 12.436492,14.9771669 C12.743695,14.8563633 12.9897928,14.7380394 13.1747602,14.6219544 C13.359753,14.5061341 13.6006656,14.344501 13.897498,14.1373679 C13.9846311,14.0776884 14.0768734,14.0149274 14.1720387,13.9503849 L18.1385049,17.7072596 C17.906692,17.9015853 17.6340069,18 17.3193056,18 Z M17.8022407,11.1185231 C18.0990476,10.9260993 18.3594304,10.7115995 18.5834908,10.4746869 L18.5834908,16.190611 L15.0888604,12.8806227 C15.8336865,12.3879474 16.7381127,11.8006852 17.8022407,11.1185231 Z M17.7498879,7 C18.0884313,7 18.3814764,7.11594059 18.6289468,7.3477014 C18.8761377,7.5797511 19,7.85836 19,8.18396143 C19,8.57367204 18.8722487,8.94612156 18.6174324,9.30118962 C18.3621586,9.65625768 18.0445343,9.95975914 17.664356,10.2112607 C16.400264,11.0422244 15.4463742,11.6695699 14.7986706,12.0958008 C14.4427158,12.3298968 14.1779611,12.504217 14.0080666,12.6161853 C13.9828773,12.632965 13.9435301,12.6594705 13.8912451,12.6950038 C13.8349441,12.7331611 13.7636972,12.7817907 13.6759794,12.8419036 C13.5066949,12.9578682 13.3660821,13.0515644 13.25409,13.1231606 C13.1418946,13.1946124 13.0065688,13.2747789 12.8477566,13.3636122 C12.6887919,13.4524694 12.5391048,13.5190342 12.3985174,13.5634026 C12.2578537,13.607747 12.1276369,13.6299914 12.0078923,13.6299914 L12.0001144,13.6299914 L11.9923364,13.6299914 C11.8725664,13.6299914 11.742375,13.607747 11.6017368,13.5634026 C11.461124,13.5190342 11.3113098,13.452325 11.1524722,13.3636122 C10.9935075,13.2747789 10.8580037,13.1947809 10.7461641,13.1231606 C10.6341721,13.0515644 10.4935592,12.9578442 10.3243002,12.8419036 C10.2364045,12.7817907 10.1651576,12.7331852 10.1088566,12.6948834 C10.056597,12.6594945 10.0172244,12.6328205 9.99218757,12.6161853 C9.77410043,12.4709226 9.50995572,12.2958802 9.20366783,12.0937545 C8.8443324,11.8563845 8.42617954,11.5813145 7.94534568,11.2657278 C7.05461983,10.6812582 6.52073843,10.329729 6.34370149,10.2112607 C6.02076476,10.0041035 5.71602737,9.7193076 5.42964184,9.35672844 C5.14325631,8.99400483 5,8.65732934 5,8.34660567 C5,7.96192654 5.10795059,7.64116399 5.32420764,7.38467913 C5.54028675,7.12831465 5.84873518,7 6.24993419,7 L17.7498879,7 Z M5.78915519,11.1185231 C6.89547722,11.8305851 7.79662448,12.4168362 8.49602842,12.8792986 L5,16.1904665 L5,10.4746869 C5.22914401,10.7164625 5.49234825,10.9311067 5.78915519,11.1185231 Z" id="Combined-Shape"></path>
        </g>
    </g>
</svg>