<svg xmlns="http://www.w3.org/2000/svg" width="49" height="40" viewBox="0 0 49 40">
    <g fill="#615F5D" fill-rule="nonzero">
        <path d="M47.567 17.273h-4.394c-.791 0-1.432.61-1.432 1.363 0 .754.64 1.364 1.432 1.364h4.394C48.36 20 49 19.39 49 18.636c0-.753-.64-1.363-1.433-1.363zM44.972 25.854l-2.723-2.727a1.359 1.359 0 0 0-1.924 0 1.365 1.365 0 0 0 0 1.928l2.722 2.727a1.359 1.359 0 0 0 1.925 0 1.365 1.365 0 0 0 0-1.928zM44.972 8.581a1.359 1.359 0 0 0-1.925 0l-2.722 2.728a1.365 1.365 0 0 0 0 1.928 1.359 1.359 0 0 0 1.924 0l2.723-2.727a1.365 1.365 0 0 0 0-1.929zM10.097 8.182c-1.86 0-3.432 1.207-4.023 2.879H5.81C2.658 11.06 0 13.643 0 16.818c0 3.176 2.658 5.758 5.81 5.758h.264c.591 1.672 2.163 2.879 4.023 2.879h7.144V8.182h-7.144zM34.481 0c-1.503 0-2.722 1.289-2.722 2.879v28.788c0 1.59 1.219 2.878 2.722 2.878 1.504 0 2.723-1.289 2.723-2.878V2.879C37.204 1.289 35.985 0 34.48 0zM10.435 28.33c-.466 0-.92-.052-1.36-.148v7.442c0 2.413 1.83 4.376 4.082 4.376s4.084-1.963 4.084-4.376v-7.295h-6.806zM26.933 4.91a11.38 11.38 0 0 1-6.97 3.53v17.665a11.378 11.378 0 0 1 6.97 3.531l1.197 1.273V3.636L26.933 4.91z"/>
    </g>
</svg>
